<svg class="main-svg" xmlns="http://www.w3.org/2000/svg" xmlns:xlink="http://www.w3.org/1999/xlink" width="1000" height="300" style="" viewBox="0 0 1000 300"><rect x="0" y="0" width="1000" height="300" style="fill: rgb(255, 255, 255); fill-opacity: 1;"/><defs id="defs-16ee24"><g class="clips"><clipPath id="clip16ee24xyplot" class="plotclip"><rect width="824" height="244"/></clipPath><clipPath class="axesclip" id="clip16ee24x"><rect x="18" y="0" width="824" height="300"/></clipPath><clipPath class="axesclip" id="clip16ee24y"><rect x="0" y="30" width="1000" height="244"/></clipPath><clipPath class="axesclip" id="clip16ee24xy"><rect x="18" y="30" width="824" height="244"/></clipPath></g><g class="gradients"/><g class="patterns"/></defs><g class="bglayer"><rect class="bg" x="18" y="30" width="824" height="244" style="fill: rgb(229, 236, 246); fill-opacity: 1; stroke-width: 0;"/></g><g class="layer-below"><g class="imagelayer"/><g class="shapelayer"/></g><g class="cartesianlayer"><g class="subplot xy"><g class="layer-subplot"><g class="shapelayer"/><g class="imagelayer"/></g><g class="gridlayer"><g class="x"><path class="xgrid crisp" transform="translate(44.42,0)" d="M0,30v244" style="stroke: rgb(255, 255, 255); stroke-opacity: 1; stroke-width: 1px;"/><path class="xgrid crisp" transform="translate(134.65,0)" d="M0,30v244" style="stroke: rgb(255, 255, 255); stroke-opacity: 1; stroke-width: 1px;"/><path class="xgrid crisp" transform="translate(226.37,0)" d="M0,30v244" style="stroke: rgb(255, 255, 255); stroke-opacity: 1; stroke-width: 1px;"/><path class="xgrid crisp" transform="translate(316.59,0)" d="M0,30v244" style="stroke: rgb(255, 255, 255); stroke-opacity: 1; stroke-width: 1px;"/><path class="xgrid crisp" transform="translate(408.32,0)" d="M0,30v244" style="stroke: rgb(255, 255, 255); stroke-opacity: 1; stroke-width: 1px;"/><path class="xgrid crisp" transform="translate(499.04,0)" d="M0,30v244" style="stroke: rgb(255, 255, 255); stroke-opacity: 1; stroke-width: 1px;"/><path class="xgrid crisp" transform="translate(590.76,0)" d="M0,30v244" style="stroke: rgb(255, 255, 255); stroke-opacity: 1; stroke-width: 1px;"/><path class="xgrid crisp" transform="translate(680.99,0)" d="M0,30v244" style="stroke: rgb(255, 255, 255); stroke-opacity: 1; stroke-width: 1px;"/><path class="xgrid crisp" transform="translate(772.71,0)" d="M0,30v244" style="stroke: rgb(255, 255, 255); stroke-opacity: 1; stroke-width: 1px;"/></g><g class="y"><path class="ygrid crisp" transform="translate(0,203.45)" d="M18,0h824" style="stroke: rgb(255, 255, 255); stroke-opacity: 1; stroke-width: 1px;"/><path class="ygrid crisp" transform="translate(0,135.64)" d="M18,0h824" style="stroke: rgb(255, 255, 255); stroke-opacity: 1; stroke-width: 1px;"/><path class="ygrid crisp" transform="translate(0,67.82)" d="M18,0h824" style="stroke: rgb(255, 255, 255); stroke-opacity: 1; stroke-width: 1px;"/></g></g><g class="zerolinelayer"><path class="yzl zl crisp" transform="translate(0,271.27)" d="M18,0h824" style="stroke: rgb(255, 255, 255); stroke-opacity: 1; stroke-width: 2px;"/></g><path class="xlines-below"/><path class="ylines-below"/><g class="overlines-below"/><g class="xaxislayer-below"/><g class="yaxislayer-below"/><g class="overaxes-below"/><g class="plot" transform="translate(18,30)" clip-path="url(#clip16ee24xyplot)"><g class="scatterlayer mlayer"><g class="trace scatter trace26d6dc" style="stroke-miterlimit: 2; opacity: 1;"><g class="fills"/><g class="errorbars"/><g class="lines"><path class="js-line" d="M0,227.27L0.5,227L1,227.89L3.99,225.76L4.49,225.6L5.98,225.07L6.48,224.83L8.47,224.05L8.97,220.98L9.47,224.79L9.97,224.26L10.47,223.93L12.46,224.58L12.96,225.5L13.46,226.16L13.96,224.17L14.95,225.17L15.45,224.2L16.45,209.32L16.95,182.66L17.45,189.99L17.95,189.82L18.44,191.87L19.44,187.61L19.94,188.65L20.44,160.36L20.94,164.08L21.43,161.63L21.93,170.47L22.43,165.16L22.93,160.6L23.43,146.35L23.93,144.23L24.43,91.08L24.92,94.85L25.42,85.25L26.42,73.02L26.92,30.68L27.42,24.49L27.92,34.52L28.41,31.45L28.91,12.2L30.41,107.34L30.91,108.97L31.4,102.71L31.9,104.19L32.4,115.05L32.9,127.56L33.4,161.3L34.4,133L34.89,136.02L35.39,134.21L36.39,149.22L36.89,150.59L37.39,149.23L37.89,152.28L38.38,158.72L38.88,158.59L39.38,146.35L40.38,164.06L40.88,162.44L41.37,175.99L43.37,194.35L43.87,188.62L44.37,192.18L44.86,186.66L45.86,168.66L46.36,173.17L46.86,167.96L47.36,171.59L48.35,163.49L48.85,164.09L49.35,159.55L49.85,165.28L50.35,163.66L50.85,167.39L51.84,177.4L52.34,173.53L53.34,177.29L53.84,176.38L54.34,177.03L54.83,179.92L55.33,178.31L55.83,179.55L56.33,179.71L56.83,173.08L58.82,185.26L59.32,183.64L59.82,187.25L60.32,184.91L61.31,187.71L61.81,193.67L62.81,194.53L63.31,198.01L63.81,196.59L64.3,190.47L66.3,197.65L66.8,197.78L67.3,197.74L67.79,200.62L68.79,202.07L69.29,206.58L70.29,206.52L70.79,208.37L71.28,207.31L71.78,203.43L72.78,207.65L73.28,208.96L74.27,207.33L74.77,207.91L75.27,207.91L76.77,198L77.27,198.4L77.76,194.98L78.26,196.29L78.76,196.72L79.76,187.56L80.26,178.58L81.25,182.27L81.75,181.82L82.25,177.88L82.75,186.98L83.25,183.46L83.75,186.08L84.74,182.08L85.24,184.44L85.74,184.21L86.24,183.01L87.73,179.89L88.23,182.17L90.72,194.82L91.22,194.02L91.72,190.7L92.22,191.02L92.72,193.89L93.22,192.84L93.72,196.02L95.21,193.78L95.71,195.05L96.71,200.61L97.21,198.41L98.2,199.72L98.7,200.05L99.2,203.81L99.7,200.5L101.19,199L101.69,197.63L102.19,195.75L102.69,196.41L103.19,195.36L104.68,195.54L105.18,196.53L105.68,201.39L106.18,200.3L106.68,203.09L107.17,205.01L107.67,203.2L108.67,205L109.17,205.45L110.17,204L110.66,204.7L111.16,205L111.66,208.25L112.16,207.95L112.66,208.9L113.16,208.6L113.66,210.35L114.15,209.37L114.65,210.86L116.15,209.98L116.65,208.3L118.64,208.78L119.14,207.87L121.63,211.74L122.13,211.52L123.13,211.03L123.62,208.49L124.12,206.98L124.62,208.28L125.12,208.96L125.62,210.96L126.62,210.8L127.11,211.07L128.11,210.09L128.61,210.76L130.11,210.53L130.6,211.02L131.1,211.75L131.6,211.03L132.1,212.09L132.6,211.39L134.09,213.19L134.59,215.43L135.09,218.76L135.59,217.75L136.09,219.54L138.08,222.67L138.58,222.15L139.08,221.44L139.58,216.4L140.08,219.09L140.57,217.94L141.07,219.62L141.57,218.54L142.07,219.58L143.56,219.01L144.06,219.31L145.06,217.41L145.56,217.89L146.06,218.52L146.56,218.53L147.05,217.69L148.55,218.78L149.05,222.04L149.55,220.74L150.04,221.51L150.54,222.33L151.54,222.94L152.04,223.39L154.03,222.14L154.53,222.2L155.03,222.81L155.53,219.44L156.03,219.16L156.53,210.76L157.52,202.56L158.02,202.57L158.52,207.72L159.02,205.53L159.52,206.26L161.51,201.83L162.01,202.18L162.51,205.95L163.01,205.45L163.5,205.56L164,206.07L164.5,208.17L166,208.73L166.49,209.91L166.99,215.29L167.49,212.85L167.99,212.86L168.49,213.92L168.99,210.93L169.98,209.52L170.48,210.23L172.48,210.54L172.98,209.93L174.47,210.12L174.97,210.32L175.47,209.91L175.97,211.33L178.96,209.89L179.46,207.54L179.95,204.03L180.45,204.94L180.95,207.8L182.94,206.2L183.44,206.68L183.94,209.1L184.44,208.6L184.94,209.29L185.94,206.65L186.43,208.84L186.93,211.79L187.43,210.91L187.93,212.37L189.92,217.16L190.42,216.84L190.92,214.78L191.42,215.53L191.92,216.69L192.42,215.98L192.91,216.34L193.41,217.62L193.91,217.38L194.41,218.33L195.41,220.79L195.91,220.43L196.4,220.02L196.9,220.67L198.4,220.92L198.9,221.68L199.89,221.74L200.39,219L201.89,215.62L202.39,216.95L203.38,216.09L203.88,213.68L205.38,218.13L205.88,215.71L207.37,217.35L207.87,216.53L208.37,215.82L208.87,216.84L209.86,217.18L210.36,216.29L211.36,216.5L211.86,216.12L212.85,218.69L213.35,218.97L213.85,219.71L214.35,218.63L215.35,218.91L215.85,218.93L217.84,219.51L218.34,219.6L220.83,220.28L221.33,221.27L221.83,221.63L222.33,219.54L223.32,220.35L223.82,220.18L225.81,221.55L226.31,221.49L227.31,220.16L227.81,220.25L228.81,220.57L229.3,220.63L231.3,220.7L231.8,219.46L232.79,218.69L233.29,219.48L234.29,218.71L234.79,220.83L235.29,218.99L235.78,219.6L236.28,220.04L238.28,220.07L238.78,220.58L239.77,219.77L240.27,219.92L241.77,220.04L242.26,220.17L244.26,219.9L244.76,219.54L249.24,220.65L249.74,220.58L250.74,220.3L251.24,220.39L252.73,220.06L253.23,217.43L254.23,218.72L254.73,216.73L255.72,216.87L256.22,216.98L258.72,219.16L259.21,218.97L260.21,219.08L260.71,218.52L261.71,218.76L262.2,218.99L264.2,220.77L264.7,221.64L265.69,221.15L266.19,221.1L266.69,221.31L267.19,220.28L268.68,220.37L269.18,220.62L272.17,220.9L272.67,219.26L273.17,220.24L273.67,219.2L274.67,210.35L275.17,212.81L276.16,215.99L276.66,212.94L278.16,215.73L278.65,215.42L279.65,215.02L280.15,213.57L281.15,210.99L281.65,211.18L282.14,212.62L282.64,211.53L283.14,212.07L283.64,211.11L285.13,213.96L285.63,212.82L286.13,212.57L286.63,213.3L287.13,214.94L287.63,214.11L288.13,214.53L290.62,212.28L291.12,210.88L291.62,212.19L292.11,211.65L292.61,212.12L293.61,209.07L294.11,209.51L294.61,209.39L295.6,209.57L296.1,213.55L297.1,212.15L297.6,214.39L299.09,213.56L299.59,214.91L300.09,215.57L300.59,214.89L301.58,214.04L302.08,214.54L303.08,218.87L303.58,217.93L304.08,218.74L304.58,220.49L305.07,219.89L305.57,221.15L307.57,218.67L308.07,218.8L309.06,220.25L309.56,219.84L310.06,219.92L310.56,219.33L311.06,220.21L313.55,219.71L314.05,220.08L315.54,219.33L316.04,220.16L317.04,220.41L317.54,221.1L319.53,221.15L320.03,223.41L321.52,223.25L322.02,222.1L323.02,222.57L323.52,223.21L325.01,222.79L325.51,222.95L326.51,222.99L327.01,223.81L331.99,223.59L332.49,223.43L334.98,223.94L335.48,223.56L336.48,223.57L336.98,221.94L337.48,219.99L337.97,220.76L338.47,221.3L339.97,223.05L340.47,225.32L341.46,224.74L341.96,224.72L342.96,224.9L343.46,223.91L344.95,224.46L345.45,224.05L346.45,223.79L346.95,222.57L347.94,222.17L348.44,222.82L349.94,222.43L350.44,221.16L351.43,221.97L351.93,220.77L353.43,221.32L353.93,221.4L354.42,221.49L354.92,222.68L355.42,222.38L355.92,221.05L357.42,221.2L357.91,220.79L359.41,221.42L359.91,221.18L360.41,221.52L360.91,220.93L361.9,220.24L362.4,221.44L363.4,222.27L363.9,222.27L366.39,223.53L366.89,223.37L367.88,223.93L368.38,223.87L371.87,226.2L372.37,226.01L375.36,226.36L375.86,226.6L377.85,225.64L378.35,225.98L381.84,227.22L382.34,228.81L382.84,227.97L383.34,228.33L383.84,228.02L387.82,228.17L388.32,227.91L390.81,228.15L391.31,228.09L391.81,228.01L392.31,226.25L393.81,227.37L394.3,226.87L395.8,226.85L396.3,225.35L397.29,225.77L397.79,225.08L398.79,225.29L399.29,225.45L400.29,225.26L400.78,225.94L401.78,226.32L402.28,225.63L405.27,224.89L405.77,224.27L406.77,223.18L407.26,222.45L408.26,222.33L408.76,222.47L409.26,222.11L409.76,222.68L410.26,222.27L410.75,220.63L411.75,218.56L412.25,220.5L413.25,221.84L413.74,221.07L414.74,222.8L415.24,222.62L416.24,222.1L416.74,222.92L417.73,225.61L418.23,225.19L418.73,225.24L419.73,225.75L420.23,225.08L421.22,225.36L421.72,225.02L422.72,225.19L423.22,227.24L424.71,227.16L425.21,231.8L425.71,230.46L426.21,231.28L426.71,230.83L427.2,231.7L428.2,231.57L428.7,230.08L430.19,231.08L430.69,230.59L433.19,229.35L433.68,230.16L435.18,229.38L435.68,229.15L437.17,229.1L437.67,228.01L438.67,227.65L439.17,227.82L440.16,228.52L440.66,228.38L442.66,228.38L443.16,228.37L444.15,228.33L444.65,228.83L448.14,227.84L448.64,226.66L449.14,225.85L449.64,226.84L451.13,226.39L451.63,226.42L454.12,226.56L454.62,227.83L455.62,227.87L456.12,227.61L459.11,227.43L459.61,227.59L460.6,227.68L461.1,227.78L462.6,228.11L463.09,227.85L466.09,227.52L466.58,227.46L470.07,227.51L470.57,228.37L472.57,228.18L473.06,228.3L474.56,228.6L475.06,228.49L479.05,229.22L479.55,229.2L482.04,229.2L482.54,229.26L484.03,227.39L484.53,227.51L486.52,227.8L487.02,227.79L490.01,228.04L490.51,227.77L494,225.65L494.5,224.78L495,224.69L495.5,223.71L496.99,220.25L497.49,220.89L498.49,220.68L498.99,221.29L501.48,221.95L501.98,221.07L503.97,219.92L504.47,220.7L505.96,222.23L506.46,221.84L508.46,222.45L508.96,223.33L511.45,221.22L511.95,222.52L512.45,224.55L512.94,223.92L513.44,225.15L515.93,224.75L516.43,224.77L517.93,224.56L518.43,224.73L520.42,224.2L520.92,224.54L522.42,226.27L522.91,225.47L524.41,224.81L524.91,224.87L526.4,225.11L526.9,225.39L527.4,225.47L527.9,224.47L530.89,224.02L531.39,223.93L532.88,224.35L533.38,224.59L534.88,224.84L535.38,224.59L536.37,224.21L536.87,223.85L543.35,225.14L543.85,224.6L544.35,223.74L544.85,224.34L545.35,224.05L546.84,223.89L547.34,223.98L549.83,220.76L550.33,221.32L551.33,219.02L551.83,210.19L552.32,211.18L552.82,199.63L553.32,194.33L553.82,198.17L554.32,205.12L554.82,203.34L555.32,198.84L555.81,200.16L556.31,196.22L556.81,199.7L557.31,198.55L557.81,198.44L558.31,203.48L558.8,201.64L559.3,199.23L559.8,199.97L560.3,203.37L560.8,201.69L561.3,202.41L561.8,204.21L562.29,206.93L562.79,206.58L563.29,207.52L563.79,209.42L564.29,202.71L565.78,201.99L566.28,203.56L567.28,210.86L567.78,223.73L568.28,218.36L568.77,219.7L569.27,221.28L569.77,222.07L570.27,224.45L571.27,226.9L571.77,226.36L572.26,225.17L572.76,226.24L573.76,225.22L574.26,225.89L574.76,224.25L575.25,219.16L576.75,219.68L577.25,221.68L578.25,220.55L578.74,221.23L579.74,222.27L580.24,222.46L581.74,221.16L582.23,223.03L583.73,222.72L584.23,223.02L584.73,223.04L585.22,224.18L586.22,222.13L586.72,211.41L587.22,207.88L587.72,216.08L588.22,216.23L588.71,214.58L589.71,210.75L590.21,211.49L590.71,212.93L591.21,210.91L592.7,205.68L593.2,200L593.7,198.61L594.2,200.97L595.19,205.95L595.69,204.95L596.19,205.16L596.69,202.82L597.19,206.17L597.69,204.07L598.19,202.5L598.68,209.15L599.18,209.27L599.68,211.8L600.18,212.25L600.68,211.58L601.18,213.13L601.67,210.94L602.17,211.64L602.67,210.73L603.17,208.27L603.67,210.2L605.66,208.31L606.16,209.86L607.16,211.35L607.66,210.08L608.65,211.6L609.15,209.9L610.15,209.2L610.65,209.32L611.15,205.53L611.64,206.02L612.14,203.97L612.64,203.52L613.14,208.12L614.14,202.81L614.64,203.94L615.13,203.92L615.63,202.76L616.63,202.35L617.13,201.98L617.63,199.46L618.12,201.2L618.62,197.41L619.12,178.85L619.62,166.93L620.12,179.04L620.62,169.88L621.12,172.04L621.61,148.06L622.11,149L622.61,141.73L623.61,116.54L624.11,121.5L625.6,145.92L626.1,152.09L626.6,147.46L627.1,153.35L628.59,170.15L629.09,171.27L630.09,146.26L630.59,149.13L631.09,146.37L631.58,133.33L632.08,129.3L632.58,135.3L633.08,135.75L633.58,146.84L634.08,131.78L634.57,132.72L635.07,134L636.07,137.15L636.57,147.07L637.07,141.06L637.57,156.64L639.06,140.5L639.56,142.76L640.56,133.39L641.06,168.69L641.55,160.87L642.05,172.98L643.05,187.22L643.55,173.94L644.05,175.07L644.54,171.17L646.04,184.86L646.54,179.79L647.04,170.29L647.54,172.71L648.03,171.8L648.53,170.38L649.03,175.47L650.53,182.87L651.02,181.88L651.52,178.88L652.02,182.33L653.02,184.8L653.52,181.38L654.51,180.93L655.01,184.85L655.51,184.21L656.01,187.18L656.51,189.62L657.01,188.62L657.51,199.88L658,204.31L658.5,198.78L659,195.7L659.5,199.68L660,199.53L660.5,197.4L660.99,197.61L661.49,193.68L661.99,193.37L662.49,196.43L662.99,196.73L663.49,195.64L663.99,194.14L664.48,196.9L664.98,196.14L665.48,197.08L665.98,199.02L666.48,198.08L666.98,198.85L667.47,198.14L667.97,198.53L668.47,199.26L668.97,199.2L669.47,200.79L670.96,201.4L671.46,203.46L671.96,205.37L672.46,202.61L673.96,199.91L674.45,200.15L675.45,197.56L675.95,192.07L676.95,190.26L677.44,190.56L677.94,192.04L678.44,191.14L678.94,192.94L679.44,191.73L680.44,190.64L680.93,185.91L681.43,188.46L681.93,185.76L682.43,183.54L682.93,172.6L683.43,175.86L683.92,167.35L684.92,153.91L685.42,160.5L685.92,166.79L686.42,163.55L687.41,155.6L687.91,158.77L688.91,156.68L689.41,164.14L689.91,161.75L690.41,168.35L690.9,160.67L691.4,163.59L691.9,163.9L692.4,166.57L692.9,160.73L694.39,153.69L694.89,156.11L695.89,147.05L696.39,164.97L697.88,169.57L698.38,168.03L698.88,165.34L699.38,169.07L700.38,165.22L700.87,167.25L702.37,170.17L702.87,179.07L703.37,181.84L703.86,173.18L704.36,173.32L704.86,177.12L705.86,177.2L706.36,178.63L706.86,180.66L707.35,178.31L707.85,176.67L708.35,170.56L708.85,170.83L709.35,169.71L709.85,170.54L710.34,167.66L711.84,169.19L712.34,162.61L713.83,166.55L714.33,164.75L715.83,164.29L716.33,167.11L716.83,167.77L717.32,167.21L717.82,163.8L718.82,167.46L719.32,167.05L719.82,167.74L720.31,167L720.81,166.12L721.31,173.76L722.31,167.93L722.81,167.76L723.31,165.77L723.8,167.16L724.8,159.29L725.3,159.75L725.8,162.5L726.3,163.11L726.79,158.7L727.29,154.3L727.79,155.89L728.29,160.34L728.79,158.64L729.29,160.61L730.28,160.66L730.78,161.83L732.28,170.61L732.78,167.25L733.28,166.83L733.77,169.37L734.27,170.97L734.77,168.91L735.77,171.29L736.27,177.77L737.26,175.57L737.76,174L738.76,174.07L739.26,175.33L740.75,186.64L741.25,185.1L741.75,185.76L742.25,182.72L742.75,182.86L743.25,186.94L744.24,184.21L744.74,188.18L745.74,185.16L746.24,186.59L746.73,187.06L747.23,185.16L747.73,184.64L748.23,181.6L749.73,173.91L750.22,179.42L751.22,178.8L751.72,178.46L752.72,185.88L753.21,184.33L753.71,184.9L754.21,183.66L754.71,183.01L755.21,184.79L755.71,185.34L756.21,188.76L756.7,188.28L757.2,189.52L758.7,191.13L759.2,189.01L759.7,187.05L760.19,189.16L761.69,188.44L762.19,189.54L763.68,192.48L764.18,198.16L764.68,200.85L765.18,198.63L765.68,199.76L766.18,199.39L766.67,199.08L767.67,199.73L768.17,199.43L768.67,200.36L769.17,199.28L769.66,198.6L770.16,200.48L770.66,200.06L771.16,196.79L772.16,194.91L772.66,185.13L773.15,181.71L773.65,182.23L774.15,184.98L774.65,189.71L775.15,185.5L776.15,186.87L776.64,183.47L777.14,184.37L777.64,189.24L778.64,185.49L779.14,188.49L779.63,193.56L780.13,192.25L780.63,193.88L781.13,194.05L781.63,189.13L782.63,192.31L783.12,188.23L783.62,188.04L784.12,189.15L785.12,192.94L785.62,190.08L786.61,192.22L787.11,192.38L787.61,189.24L788.11,191.26L788.61,186.87L789.11,187.93L789.6,189.64L791.6,187.46L792.1,187.13L792.6,185.7L793.09,186.6L794.09,184.5L794.59,184.45L795.09,184.1L795.59,185.31L796.08,184.79L796.58,183.13L797.58,183.08L798.08,182.89L798.58,186.03L799.08,185.14L799.57,185.33L800.07,184.1L800.57,185.17L801.07,185.82L801.57,189.64L802.07,187.83L802.57,190.13L803.06,189.49L803.56,189.96L804.06,194.14L805.56,191.98L806.05,187.99L806.55,188.25L807.05,190.19L808.05,188.71L808.55,190.26L810.54,193.88L811.04,194.18L811.54,197.75L812.04,197.03L812.53,197.57L813.53,201.46L814.03,200.05L814.53,199.61L815.03,200.25L815.53,197.43L816.02,200.66L816.52,200.41L817.02,201.78L817.52,202.85L818.02,207.84L818.52,206.44L819.02,213.24L819.51,215.15L820.01,212.56L820.51,212.26L821.01,210.93L821.51,212.62L822.01,211.59L822.5,213.72L823,212.79L823.5,213.39L824,213.15" style="vector-effect: non-scaling-stroke; fill: none; stroke: rgb(0, 0, 0); stroke-opacity: 1; stroke-width: 1px; opacity: 1;"/></g><g class="points"/><g class="text"/></g><g class="trace scatter tracee68abb" style="stroke-miterlimit: 2; opacity: 1;"><g class="fills"/><g class="errorbars"/><g class="lines"><path class="js-line" d="M0,226.52L1.5,227.89L1.99,227.47L4.49,225.76L4.98,225.6L6.48,225.07L6.98,224.83L8.97,224.05L9.47,220.98L9.97,224.79L10.47,224.26L10.97,223.93L12.96,224.58L13.46,225.5L13.96,226.16L14.46,224.17L15.45,225.17L15.95,224.2L16.95,209.32L17.45,182.66L17.95,189.99L18.44,189.82L18.94,191.87L19.94,187.61L20.44,188.65L20.94,160.36L21.43,164.08L21.93,161.63L22.43,170.47L22.93,165.16L23.43,160.6L23.93,146.35L24.43,144.23L24.92,91.08L25.42,94.85L25.92,85.25L26.92,73.02L27.42,30.68L27.92,24.49L28.41,34.52L28.91,31.45L29.41,12.2L30.91,107.34L31.4,108.97L31.9,102.71L32.4,104.19L32.9,115.05L33.4,127.56L33.9,161.3L34.89,133L35.39,136.02L35.89,134.21L36.89,149.22L37.39,150.59L37.89,149.23L38.38,152.28L38.88,158.72L39.38,158.59L39.88,146.35L40.88,164.06L41.37,162.44L41.87,175.99L43.87,194.35L44.37,188.62L44.86,192.18L45.36,186.66L46.36,168.66L46.86,173.17L47.36,167.96L47.85,171.59L48.85,163.49L49.35,164.09L49.85,159.55L50.35,165.28L50.85,163.66L51.34,167.39L52.34,177.4L52.84,173.53L53.84,177.29L54.34,176.38L54.83,177.03L55.33,179.92L55.83,178.31L56.33,179.55L56.83,179.71L57.33,173.08L59.32,185.26L59.82,183.64L60.32,187.25L60.82,184.91L61.81,187.71L62.31,193.67L63.31,194.53L63.81,198.01L64.3,196.59L64.8,190.47L66.8,197.65L67.3,197.78L67.79,197.74L68.29,200.62L69.29,202.07L69.79,206.58L70.79,206.52L71.28,208.37L71.78,207.31L72.28,203.43L73.28,207.65L73.78,208.96L74.77,207.33L75.27,207.91L75.77,207.91L77.27,198L77.76,198.4L78.26,194.98L78.76,196.29L79.26,196.72L80.26,187.56L80.75,178.58L81.75,182.27L82.25,181.82L82.75,177.88L83.25,186.98L83.75,183.46L84.24,186.08L85.24,182.08L85.74,184.44L86.24,184.21L86.74,183.01L88.23,179.89L88.73,182.17L91.22,194.82L91.72,194.02L92.22,190.7L92.72,191.02L93.22,193.89L93.72,192.84L94.21,196.02L95.71,193.78L96.21,195.05L97.21,200.61L97.7,198.41L98.7,199.72L99.2,200.05L99.7,203.81L100.2,200.5L101.69,199L102.19,197.63L102.69,195.75L103.19,196.41L103.69,195.36L105.18,195.54L105.68,196.53L106.18,201.39L106.68,200.3L107.17,203.09L107.67,205.01L108.17,203.2L109.17,205L109.67,205.45L110.66,204L111.16,204.7L111.66,205L112.16,208.25L112.66,207.95L113.16,208.9L113.66,208.6L114.15,210.35L114.65,209.37L115.15,210.86L116.65,209.98L117.14,208.3L119.14,208.78L119.64,207.87L122.13,211.74L122.63,211.52L123.62,211.03L124.12,208.49L124.62,206.98L125.12,208.28L125.62,208.96L126.12,210.96L127.11,210.8L127.61,211.07L128.61,210.09L129.11,210.76L130.6,210.53L131.1,211.02L131.6,211.75L132.1,211.03L132.6,212.09L133.1,211.39L134.59,213.19L135.09,215.43L135.59,218.76L136.09,217.75L136.59,219.54L138.08,222.45L138.58,222.67L139.58,221.44L140.08,216.4L140.57,219.09L141.07,217.94L141.57,219.62L142.07,218.54L142.57,219.58L144.06,219.01L144.56,219.31L145.56,217.41L146.06,217.89L146.56,218.52L147.05,218.53L147.55,217.69L149.05,218.78L149.55,222.04L150.04,220.74L150.54,221.51L151.04,222.33L152.04,222.94L152.54,223.39L154.53,222.14L155.03,222.2L155.53,222.81L156.03,219.44L156.53,219.16L157.02,210.76L158.02,202.56L158.52,202.57L159.02,207.72L159.52,205.53L160.01,206.26L162.01,201.83L162.51,202.18L163.01,205.95L163.5,205.45L164,205.56L164.5,206.07L165,208.17L166.49,208.73L166.99,209.91L167.49,215.29L167.99,212.85L168.49,212.86L168.99,213.92L169.49,210.93L170.48,209.52L170.98,210.23L172.98,210.54L173.47,209.93L174.97,210.12L175.47,210.32L175.97,209.91L176.46,211.33L179.46,209.89L179.95,207.54L180.45,204.03L180.95,204.94L181.45,207.8L183.44,206.2L183.94,206.68L184.44,209.1L184.94,208.6L185.44,209.29L186.43,206.65L186.93,208.84L187.43,211.79L187.93,210.91L188.43,212.37L190.42,217.16L190.92,216.84L191.42,214.78L191.92,215.53L192.42,216.69L192.91,215.98L193.41,216.34L193.91,217.62L194.41,217.38L194.91,218.33L195.91,220.79L196.4,220.43L196.9,220.02L197.4,220.67L198.9,220.92L199.4,221.68L200.39,221.74L200.89,219L202.39,215.62L202.88,216.95L203.88,216.09L204.38,213.68L205.88,218.13L206.37,215.71L207.87,217.35L208.37,216.53L208.87,215.82L209.36,216.84L210.36,217.18L210.86,216.29L211.86,216.5L212.36,216.12L213.35,218.69L213.85,218.97L214.35,219.71L214.85,218.63L215.85,218.91L216.34,218.93L218.34,219.51L218.84,219.6L221.33,220.28L221.83,221.27L222.33,221.63L222.82,219.54L223.82,220.35L224.32,220.18L226.31,221.55L226.81,221.49L227.81,220.16L228.31,220.25L229.3,220.57L229.8,220.63L231.8,220.7L232.3,219.46L233.29,218.69L233.79,219.48L234.79,218.71L235.29,220.83L235.78,218.99L236.28,219.6L236.78,220.04L238.78,220.07L239.27,220.58L240.27,219.77L240.77,219.92L242.26,220.04L242.76,220.17L244.76,219.9L245.26,219.54L249.74,220.65L250.24,220.58L251.24,220.3L251.74,220.39L253.23,220.06L253.73,217.43L254.73,218.72L255.23,216.73L256.22,216.87L256.72,216.98L259.21,219.16L259.71,218.97L260.71,219.08L261.21,218.52L262.2,218.76L262.7,218.99L264.7,220.77L265.2,221.64L266.19,221.15L266.69,221.1L267.19,221.31L267.69,220.28L269.18,220.37L269.68,220.62L272.67,220.9L273.17,219.26L273.67,220.24L274.17,219.2L275.17,210.35L275.66,212.81L276.66,215.99L277.16,212.94L278.65,215.73L279.15,215.42L280.15,215.02L280.65,213.57L281.65,210.99L282.14,211.18L282.64,212.62L283.14,211.53L283.64,212.07L284.14,211.11L285.63,213.96L286.13,212.82L286.63,212.57L287.13,213.3L287.63,214.94L288.13,214.11L288.62,214.53L291.12,212.28L291.62,210.88L292.11,212.19L292.61,211.65L293.11,212.12L294.11,209.07L294.61,209.51L295.1,209.39L296.1,209.57L296.6,213.55L297.6,212.15L298.1,214.39L298.59,213.68L299.09,214.13L299.59,213.56L300.59,215.57L301.09,214.89L302.08,214.04L302.58,214.54L303.58,218.87L304.08,217.93L304.58,218.74L305.07,220.49L305.57,219.89L306.07,221.15L308.07,218.67L308.56,218.8L309.56,220.25L310.06,219.84L310.56,219.92L311.06,219.33L311.55,220.21L314.05,219.71L314.55,220.08L316.04,219.33L316.54,220.16L317.54,220.41L318.04,221.1L320.03,221.15L320.53,223.41L322.02,223.25L322.52,222.1L323.52,222.57L324.02,223.21L325.51,222.79L326.01,222.95L327.01,222.99L327.51,223.81L332.49,223.59L332.99,223.43L335.48,223.94L335.98,223.56L336.98,223.57L337.48,221.94L337.97,219.99L338.47,220.76L338.97,221.3L340.47,223.05L340.97,225.32L341.96,224.74L342.46,224.72L343.46,224.9L343.96,223.91L345.45,224.46L345.95,224.05L346.95,223.79L347.45,222.57L348.44,222.17L348.94,222.82L350.44,222.43L350.94,221.16L351.93,221.97L352.43,220.77L353.93,221.32L354.42,221.4L354.92,221.49L355.42,222.68L355.92,222.38L356.42,221.05L357.91,221.2L358.41,220.79L359.91,221.42L360.41,221.18L360.91,221.52L361.4,220.93L362.4,220.24L362.9,221.44L363.9,222.27L364.39,222.27L366.89,223.53L367.39,223.37L368.38,223.93L368.88,223.87L372.37,226.2L372.87,226.01L375.86,226.36L376.36,226.6L378.35,225.64L378.85,225.98L382.34,227.22L382.84,228.81L383.34,227.97L383.84,228.33L384.33,228.02L388.32,228.17L388.82,227.91L391.31,228.15L391.81,228.09L392.31,228.01L392.81,226.25L394.3,227.37L394.8,226.87L396.3,226.85L396.8,225.35L397.79,225.77L398.29,225.08L399.29,225.29L399.79,225.45L400.78,225.26L401.28,225.94L402.28,226.32L402.78,225.63L405.77,224.89L406.27,224.27L407.26,223.18L407.76,222.45L408.76,222.33L409.26,222.47L409.76,222.11L410.26,222.68L410.75,222.27L411.25,220.63L412.25,218.56L412.75,220.5L413.74,221.84L414.24,221.07L415.24,222.8L415.74,222.62L416.74,222.1L417.23,222.92L418.23,225.61L418.73,225.19L419.23,225.24L420.23,225.75L420.72,225.08L421.72,225.36L422.22,225.02L423.22,225.19L423.71,227.24L425.21,227.16L425.71,231.8L426.21,230.46L426.71,231.28L427.2,230.83L427.7,231.7L428.7,231.57L429.2,230.08L430.69,231.08L431.19,230.59L433.68,229.35L434.18,230.16L435.68,229.38L436.18,229.15L437.67,229.1L438.17,228.01L439.17,227.65L439.67,227.82L440.66,228.52L441.16,228.38L443.16,228.38L443.65,228.37L444.65,228.33L445.15,228.83L448.64,227.84L449.14,226.66L449.64,225.85L450.13,226.84L451.63,226.39L452.13,226.42L454.62,226.56L455.12,227.83L456.12,227.87L456.61,227.61L459.61,227.43L460.1,227.59L461.1,227.68L461.6,227.78L463.09,228.11L463.59,227.85L466.58,227.52L467.08,227.46L470.57,227.51L471.07,228.37L473.06,228.18L473.56,228.3L475.06,228.6L475.56,228.49L479.55,229.22L480.04,229.2L483.03,229.26L483.53,228.48L484.03,228.74L484.53,227.39L489.02,228.09L489.51,227.75L491.51,227.48L492.01,227.19L492.51,227.43L493,226.75L494,226.1L494.5,225.65L497.49,220.25L497.99,220.89L498.99,220.68L499.48,221.29L501.98,221.95L502.48,221.07L504.47,219.92L504.97,220.7L506.46,222.23L506.96,221.84L508.96,222.45L509.45,223.33L511.95,221.22L512.45,222.52L512.94,224.55L513.44,223.92L513.94,225.15L516.43,224.75L516.93,224.77L518.43,224.56L518.93,224.73L520.92,224.2L521.42,224.54L522.91,226.27L523.41,225.47L524.91,224.81L525.41,224.87L526.9,225.11L527.4,225.39L527.9,225.47L528.4,224.47L531.39,224.02L531.89,223.93L533.38,224.35L533.88,224.59L535.38,224.84L535.87,224.59L536.87,224.21L537.37,223.85L543.85,225.14L544.35,224.6L544.85,223.74L545.35,224.34L545.84,224.05L547.34,223.89L547.84,223.98L550.33,220.76L550.83,221.32L551.83,219.02L552.32,210.19L552.82,211.18L553.32,199.63L553.82,194.33L554.32,198.17L554.82,205.12L555.32,203.34L555.81,198.84L556.31,200.16L556.81,196.22L557.31,199.7L557.81,198.55L558.31,198.44L558.8,203.48L559.3,201.64L559.8,199.23L560.3,199.97L560.8,203.37L561.3,201.69L561.8,202.41L562.29,204.21L562.79,206.93L563.29,206.58L563.79,207.52L564.29,209.42L564.79,202.71L566.28,201.99L566.78,203.56L567.78,210.86L568.28,223.73L568.77,218.36L569.27,219.7L569.77,221.28L570.27,222.07L570.77,224.45L571.77,226.9L572.26,226.36L572.76,225.17L573.26,226.24L574.26,225.22L574.76,225.89L575.25,224.25L575.75,219.16L577.25,219.68L577.75,221.68L578.74,220.55L579.24,221.23L580.24,222.27L580.74,222.46L582.23,221.16L582.73,223.03L584.23,222.72L584.73,223.02L585.22,223.04L585.72,224.18L586.72,222.13L587.22,211.41L587.72,207.88L588.22,216.08L588.71,216.23L589.21,214.58L590.21,210.75L590.71,211.49L591.21,212.93L591.7,210.91L593.2,205.68L593.7,200L594.2,198.61L594.7,200.97L595.69,205.95L596.19,204.95L596.69,205.16L597.19,202.82L597.69,206.17L598.19,204.07L598.68,202.5L599.18,209.15L599.68,209.27L600.18,211.8L600.68,212.25L601.18,211.58L601.67,213.13L602.17,210.94L602.67,211.64L603.17,210.73L603.67,208.27L604.17,210.2L606.16,208.31L606.66,209.86L607.66,211.35L608.15,210.08L609.15,211.6L609.65,209.9L610.65,209.2L611.15,209.32L611.64,205.53L612.14,206.02L612.64,203.97L613.14,203.52L613.64,208.12L614.64,202.81L615.13,203.94L615.63,203.92L616.13,202.76L617.13,202.35L617.63,201.98L618.12,199.46L618.62,201.2L619.12,197.41L619.62,178.85L620.12,166.93L620.62,179.04L621.12,169.88L621.61,172.04L622.11,148.06L622.61,149L623.11,141.73L624.11,116.54L624.6,121.5L626.1,145.92L626.6,152.09L627.1,147.46L627.6,153.35L629.09,170.15L629.59,171.27L630.59,146.26L631.09,149.13L631.58,146.37L632.08,133.33L632.58,129.3L633.08,135.3L633.58,135.75L634.08,146.84L634.57,131.78L635.07,132.72L635.57,134L636.57,137.15L637.07,147.07L637.57,141.06L638.06,156.64L639.56,140.5L640.06,142.76L641.06,133.39L641.55,168.69L642.05,160.87L642.55,172.98L643.55,187.22L644.05,173.94L644.54,175.07L645.04,171.17L646.54,184.86L647.04,179.79L647.54,170.29L648.03,172.71L648.53,171.8L649.03,170.38L649.53,175.47L651.02,182.87L651.52,181.88L652.02,178.88L652.52,182.33L653.52,184.8L654.02,181.38L655.01,180.93L655.51,184.85L656.01,184.21L656.51,187.18L657.01,189.62L657.51,188.62L658,199.88L658.5,204.31L659,198.78L659.5,195.7L660,199.68L660.5,199.53L660.99,197.4L661.49,197.61L661.99,193.68L662.49,193.37L662.99,196.43L663.49,196.73L663.99,195.64L664.48,194.14L664.98,196.9L665.48,196.14L665.98,197.08L666.48,199.02L666.98,198.08L667.47,198.85L667.97,198.14L668.47,198.53L668.97,199.26L669.47,199.2L669.97,200.79L671.46,201.4L671.96,203.46L672.46,205.37L672.96,202.61L674.45,199.91L674.95,200.15L675.95,197.56L676.45,192.07L677.44,190.26L677.94,190.56L678.44,192.04L678.94,191.14L679.44,192.94L679.94,191.73L680.93,190.64L681.43,185.91L681.93,188.46L682.43,185.76L682.93,183.54L683.43,172.6L683.92,175.86L684.42,167.35L685.42,153.91L685.92,160.5L686.42,166.79L686.92,163.55L687.91,155.6L688.41,158.77L689.41,156.68L689.91,164.14L690.41,161.75L690.9,168.35L691.4,160.67L691.9,163.59L692.4,163.9L692.9,166.57L693.4,160.73L694.89,153.69L695.39,156.11L696.39,147.05L696.89,164.97L698.38,169.57L698.88,168.03L699.38,165.34L699.88,169.07L700.87,165.22L701.37,167.25L702.87,170.17L703.37,179.07L703.86,181.84L704.36,173.18L704.86,173.32L705.36,177.12L706.36,177.2L706.86,178.63L707.35,180.66L707.85,178.31L708.35,176.67L708.85,170.56L709.35,170.83L709.85,169.71L710.34,170.54L710.84,167.66L712.34,169.19L712.84,162.61L714.33,166.55L714.83,164.75L716.33,164.29L716.83,167.11L717.32,167.77L717.82,167.21L718.32,163.8L719.32,167.46L719.82,167.05L720.31,167.74L720.81,167L721.31,166.12L721.81,173.76L722.81,167.93L723.31,167.76L723.8,165.77L724.3,167.16L725.3,159.29L725.8,159.75L726.3,162.5L726.79,163.11L727.29,158.7L727.79,154.3L728.29,155.89L728.79,160.34L729.29,158.64L729.79,160.61L730.78,160.66L731.28,161.83L732.78,170.61L733.28,167.25L733.77,166.83L734.27,169.37L734.77,170.97L735.27,168.91L736.27,171.29L736.76,177.77L737.76,175.57L738.26,174L739.26,174.07L739.76,175.33L741.25,186.64L741.75,185.1L742.25,185.76L742.75,182.72L743.25,182.86L743.74,186.94L744.74,184.21L745.24,188.18L746.24,185.16L746.73,186.59L747.23,187.06L747.73,185.16L748.23,184.64L748.73,181.6L750.22,173.91L750.72,179.42L751.72,178.8L752.22,178.46L753.21,185.88L753.71,184.33L754.21,184.9L754.71,183.66L755.21,183.01L755.71,184.79L756.21,185.34L756.7,188.76L757.2,188.28L757.7,189.52L759.2,191.13L759.7,189.01L760.19,187.05L760.69,189.16L762.19,188.44L762.69,189.54L764.18,192.48L764.68,198.16L765.18,200.85L765.68,198.63L766.18,199.76L766.67,199.39L767.17,199.08L768.17,199.73L768.67,199.43L769.17,200.36L769.66,199.28L770.16,198.6L770.66,200.48L771.16,200.06L771.66,196.79L772.66,194.91L773.15,185.13L773.65,181.71L774.15,182.23L774.65,184.98L775.15,189.71L775.65,185.5L776.64,186.87L777.14,183.47L777.64,184.37L778.14,189.24L779.14,185.49L779.63,188.49L780.13,193.56L780.63,192.25L781.13,193.88L781.63,194.05L782.13,189.13L783.12,192.31L783.62,188.23L784.12,188.04L784.62,189.15L785.62,192.94L786.11,190.08L787.11,192.22L787.61,192.38L788.11,189.24L788.61,191.26L789.11,186.87L789.6,187.93L790.1,189.64L792.1,187.46L792.6,187.13L793.09,185.7L793.59,186.6L794.59,184.5L795.09,184.45L795.59,184.1L796.08,185.31L796.58,184.79L797.08,183.13L798.08,183.08L798.58,182.89L799.08,186.03L799.57,185.14L800.07,185.33L800.57,184.1L801.07,185.17L801.57,185.82L802.07,189.64L802.57,187.83L803.06,190.13L803.56,189.49L804.06,189.96L804.56,194.14L806.05,191.98L806.55,187.99L807.05,188.25L807.55,190.19L808.55,188.71L809.05,190.26L811.04,193.88L811.54,194.18L812.04,197.75L812.53,197.03L813.03,197.57L814.03,201.46L814.53,200.05L815.03,199.61L815.53,200.25L816.02,197.43L816.52,200.66L817.02,200.41L817.52,201.78L818.02,202.85L818.52,207.84L819.02,206.44L819.51,213.24L820.01,215.15L820.51,212.56L821.01,212.26L821.51,210.93L822.01,212.62L822.5,211.59L823,213.72L823.5,212.79L824,213.39" style="vector-effect: non-scaling-stroke; fill: none; stroke: rgb(255, 0, 0); stroke-opacity: 1; stroke-width: 1px; opacity: 1;"/></g><g class="points"/><g class="text"/></g></g></g><g class="overplot"/><path class="xlines-above crisp" d="M0,0" style="fill: none;"/><path class="ylines-above crisp" d="M0,0" style="fill: none;"/><g class="overlines-above"/><g class="xaxislayer-above"><g class="xtick"><text text-anchor="middle" x="0" y="287" transform="translate(44.42,0)" style="font-family: 'Open Sans', verdana, arial, sans-serif; font-size: 12px; fill: rgb(42, 63, 95); fill-opacity: 1; white-space: pre; opacity: 1;">Jan 2018</text></g><g class="xtick"><text text-anchor="middle" x="0" y="287" style="font-family: 'Open Sans', verdana, arial, sans-serif; font-size: 12px; fill: rgb(42, 63, 95); fill-opacity: 1; white-space: pre; opacity: 1;" transform="translate(134.65,0)">Jul 2018</text></g><g class="xtick"><text text-anchor="middle" x="0" y="287" style="font-family: 'Open Sans', verdana, arial, sans-serif; font-size: 12px; fill: rgb(42, 63, 95); fill-opacity: 1; white-space: pre; opacity: 1;" transform="translate(226.37,0)">Jan 2019</text></g><g class="xtick"><text text-anchor="middle" x="0" y="287" style="font-family: 'Open Sans', verdana, arial, sans-serif; font-size: 12px; fill: rgb(42, 63, 95); fill-opacity: 1; white-space: pre; opacity: 1;" transform="translate(316.59,0)">Jul 2019</text></g><g class="xtick"><text text-anchor="middle" x="0" y="287" style="font-family: 'Open Sans', verdana, arial, sans-serif; font-size: 12px; fill: rgb(42, 63, 95); fill-opacity: 1; white-space: pre; opacity: 1;" transform="translate(408.32,0)">Jan 2020</text></g><g class="xtick"><text text-anchor="middle" x="0" y="287" style="font-family: 'Open Sans', verdana, arial, sans-serif; font-size: 12px; fill: rgb(42, 63, 95); fill-opacity: 1; white-space: pre; opacity: 1;" transform="translate(499.04,0)">Jul 2020</text></g><g class="xtick"><text text-anchor="middle" x="0" y="287" style="font-family: 'Open Sans', verdana, arial, sans-serif; font-size: 12px; fill: rgb(42, 63, 95); fill-opacity: 1; white-space: pre; opacity: 1;" transform="translate(590.76,0)">Jan 2021</text></g><g class="xtick"><text text-anchor="middle" x="0" y="287" style="font-family: 'Open Sans', verdana, arial, sans-serif; font-size: 12px; fill: rgb(42, 63, 95); fill-opacity: 1; white-space: pre; opacity: 1;" transform="translate(680.99,0)">Jul 2021</text></g><g class="xtick"><text text-anchor="middle" x="0" y="287" style="font-family: 'Open Sans', verdana, arial, sans-serif; font-size: 12px; fill: rgb(42, 63, 95); fill-opacity: 1; white-space: pre; opacity: 1;" transform="translate(772.71,0)">Jan 2022</text></g></g><g class="yaxislayer-above"><g class="ytick"><text text-anchor="end" x="17" y="4.199999999999999" transform="translate(0,271.27)" style="font-family: 'Open Sans', verdana, arial, sans-serif; font-size: 12px; fill: rgb(42, 63, 95); fill-opacity: 1; white-space: pre; opacity: 1;">0</text></g><g class="ytick"><text text-anchor="end" x="17" y="4.199999999999999" style="font-family: 'Open Sans', verdana, arial, sans-serif; font-size: 12px; fill: rgb(42, 63, 95); fill-opacity: 1; white-space: pre; opacity: 1;" transform="translate(0,203.45)">1</text></g><g class="ytick"><text text-anchor="end" x="17" y="4.199999999999999" style="font-family: 'Open Sans', verdana, arial, sans-serif; font-size: 12px; fill: rgb(42, 63, 95); fill-opacity: 1; white-space: pre; opacity: 1;" transform="translate(0,135.64)">2</text></g><g class="ytick"><text text-anchor="end" x="17" y="4.199999999999999" style="font-family: 'Open Sans', verdana, arial, sans-serif; font-size: 12px; fill: rgb(42, 63, 95); fill-opacity: 1; white-space: pre; opacity: 1;" transform="translate(0,67.82)">3</text></g></g><g class="overaxes-above"/></g></g><g class="polarlayer"/><g class="smithlayer"/><g class="ternarylayer"/><g class="geolayer"/><g class="funnelarealayer"/><g class="pielayer"/><g class="iciclelayer"/><g class="treemaplayer"/><g class="sunburstlayer"/><g class="glimages"/><defs id="topdefs-16ee24"><g class="clips"/><clipPath id="legend16ee24"><rect width="132" height="48" x="0" y="0"/></clipPath></defs><g class="layer-above"><g class="imagelayer"/><g class="shapelayer"/></g><g class="infolayer"><g class="legend" pointer-events="all" transform="translate(858.48,30)"><rect class="bg" shape-rendering="crispEdges" width="132" height="48" x="0" y="0" style="stroke: rgb(68, 68, 68); stroke-opacity: 1; fill: rgb(255, 255, 255); fill-opacity: 1; stroke-width: 0px;"/><g class="scrollbox" transform="" clip-path="url(#legend16ee24)"><g class="groups" transform=""><g class="traces" transform="translate(0,14.5)" style="opacity: 1;"><text class="legendtext" text-anchor="start" x="40" y="4.680000000000001" style="font-family: 'Open Sans', verdana, arial, sans-serif; font-size: 12px; fill: rgb(42, 63, 95); fill-opacity: 1; white-space: pre;">XRP close</text><g class="layers" style="opacity: 1;"><g class="legendfill"/><g class="legendlines"><path class="js-line" d="M5,0h30" style="fill: none; stroke: rgb(0, 0, 0); stroke-opacity: 1; stroke-width: 1px;"/></g><g class="legendsymbols"><g class="legendpoints"/></g></g><rect class="legendtoggle" x="0" y="-9.5" width="126.046875" height="19" style="fill: rgb(0, 0, 0); fill-opacity: 0;"/></g><g class="traces" transform="translate(0,33.5)" style="opacity: 1;"><text class="legendtext" text-anchor="start" x="40" y="4.680000000000001" style="font-family: 'Open Sans', verdana, arial, sans-serif; font-size: 12px; fill: rgb(42, 63, 95); fill-opacity: 1; white-space: pre;">XRP predictions</text><g class="layers" style="opacity: 1;"><g class="legendfill"/><g class="legendlines"><path class="js-line" d="M5,0h30" style="fill: none; stroke: rgb(255, 0, 0); stroke-opacity: 1; stroke-width: 1px;"/></g><g class="legendsymbols"><g class="legendpoints"/></g></g><rect class="legendtoggle" x="0" y="-9.5" width="126.046875" height="19" style="fill: rgb(0, 0, 0); fill-opacity: 0;"/></g></g></g><rect class="scrollbar" rx="20" ry="3" width="0" height="0" x="0" y="0" style="fill: rgb(128, 139, 164); fill-opacity: 1;"/></g><g class="g-gtitle"/><g class="g-xtitle"/><g class="g-ytitle"/><g class="annotation" data-index="0" style="opacity: 1;"><g class="annotation-text-g" transform="rotate(0,430,19.5)"><g class="cursor-pointer" transform="translate(412,9)"><rect class="bg" x="0.5" y="0.5" width="36" height="20" style="stroke-width: 1px; stroke: rgb(0, 0, 0); stroke-opacity: 0; fill: rgb(0, 0, 0); fill-opacity: 0;"/><text class="annotation-text" text-anchor="middle" x="18.453125" y="16" style="font-family: 'Open Sans', verdana, arial, sans-serif; font-size: 16px; fill: rgb(42, 63, 95); fill-opacity: 1; white-space: pre;">XRP</text></g></g></g></g></svg>