<svg class="main-svg" xmlns="http://www.w3.org/2000/svg" xmlns:xlink="http://www.w3.org/1999/xlink" width="700" height="500" style="" viewBox="0 0 700 500"><rect x="0" y="0" width="700" height="500" style="fill: rgb(255, 255, 255); fill-opacity: 1;"/><defs id="defs-3a899b"><g class="clips"><clipPath id="clip3a899bxyplot" class="plotclip"><rect width="450" height="320"/></clipPath><clipPath class="axesclip" id="clip3a899bx"><rect x="80" y="0" width="450" height="500"/></clipPath><clipPath class="axesclip" id="clip3a899by"><rect x="0" y="100" width="700" height="320"/></clipPath><clipPath class="axesclip" id="clip3a899bxy"><rect x="80" y="100" width="450" height="320"/></clipPath></g><g class="gradients"/><g class="patterns"/></defs><g class="bglayer"><rect class="bg" x="80" y="100" width="450" height="320" style="fill: rgb(229, 236, 246); fill-opacity: 1; stroke-width: 0;"/></g><g class="layer-below"><g class="imagelayer"/><g class="shapelayer"/></g><g class="cartesianlayer"><g class="subplot xy"><g class="layer-subplot"><g class="shapelayer"/><g class="imagelayer"/></g><g class="gridlayer"><g class="x"><path class="xgrid crisp" transform="translate(98.18,0)" d="M0,100v320" style="stroke: rgb(255, 255, 255); stroke-opacity: 1; stroke-width: 1px;"/><path class="xgrid crisp" transform="translate(116.36,0)" d="M0,100v320" style="stroke: rgb(255, 255, 255); stroke-opacity: 1; stroke-width: 1px;"/><path class="xgrid crisp" transform="translate(134.55,0)" d="M0,100v320" style="stroke: rgb(255, 255, 255); stroke-opacity: 1; stroke-width: 1px;"/><path class="xgrid crisp" transform="translate(152.73000000000002,0)" d="M0,100v320" style="stroke: rgb(255, 255, 255); stroke-opacity: 1; stroke-width: 1px;"/><path class="xgrid crisp" transform="translate(170.91,0)" d="M0,100v320" style="stroke: rgb(255, 255, 255); stroke-opacity: 1; stroke-width: 1px;"/><path class="xgrid crisp" transform="translate(189.09,0)" d="M0,100v320" style="stroke: rgb(255, 255, 255); stroke-opacity: 1; stroke-width: 1px;"/><path class="xgrid crisp" transform="translate(207.26999999999998,0)" d="M0,100v320" style="stroke: rgb(255, 255, 255); stroke-opacity: 1; stroke-width: 1px;"/><path class="xgrid crisp" transform="translate(225.45,0)" d="M0,100v320" style="stroke: rgb(255, 255, 255); stroke-opacity: 1; stroke-width: 1px;"/><path class="xgrid crisp" transform="translate(243.64,0)" d="M0,100v320" style="stroke: rgb(255, 255, 255); stroke-opacity: 1; stroke-width: 1px;"/><path class="xgrid crisp" transform="translate(261.82,0)" d="M0,100v320" style="stroke: rgb(255, 255, 255); stroke-opacity: 1; stroke-width: 1px;"/><path class="xgrid crisp" transform="translate(280,0)" d="M0,100v320" style="stroke: rgb(255, 255, 255); stroke-opacity: 1; stroke-width: 1px;"/><path class="xgrid crisp" transform="translate(298.18,0)" d="M0,100v320" style="stroke: rgb(255, 255, 255); stroke-opacity: 1; stroke-width: 1px;"/><path class="xgrid crisp" transform="translate(316.36,0)" d="M0,100v320" style="stroke: rgb(255, 255, 255); stroke-opacity: 1; stroke-width: 1px;"/><path class="xgrid crisp" transform="translate(334.55,0)" d="M0,100v320" style="stroke: rgb(255, 255, 255); stroke-opacity: 1; stroke-width: 1px;"/><path class="xgrid crisp" transform="translate(352.73,0)" d="M0,100v320" style="stroke: rgb(255, 255, 255); stroke-opacity: 1; stroke-width: 1px;"/><path class="xgrid crisp" transform="translate(370.91,0)" d="M0,100v320" style="stroke: rgb(255, 255, 255); stroke-opacity: 1; stroke-width: 1px;"/><path class="xgrid crisp" transform="translate(389.09,0)" d="M0,100v320" style="stroke: rgb(255, 255, 255); stroke-opacity: 1; stroke-width: 1px;"/><path class="xgrid crisp" transform="translate(407.27,0)" d="M0,100v320" style="stroke: rgb(255, 255, 255); stroke-opacity: 1; stroke-width: 1px;"/><path class="xgrid crisp" transform="translate(425.45,0)" d="M0,100v320" style="stroke: rgb(255, 255, 255); stroke-opacity: 1; stroke-width: 1px;"/><path class="xgrid crisp" transform="translate(443.64,0)" d="M0,100v320" style="stroke: rgb(255, 255, 255); stroke-opacity: 1; stroke-width: 1px;"/><path class="xgrid crisp" transform="translate(461.82,0)" d="M0,100v320" style="stroke: rgb(255, 255, 255); stroke-opacity: 1; stroke-width: 1px;"/><path class="xgrid crisp" transform="translate(480,0)" d="M0,100v320" style="stroke: rgb(255, 255, 255); stroke-opacity: 1; stroke-width: 1px;"/><path class="xgrid crisp" transform="translate(498.18,0)" d="M0,100v320" style="stroke: rgb(255, 255, 255); stroke-opacity: 1; stroke-width: 1px;"/><path class="xgrid crisp" transform="translate(516.36,0)" d="M0,100v320" style="stroke: rgb(255, 255, 255); stroke-opacity: 1; stroke-width: 1px;"/></g><g class="y"><path class="ygrid crisp" transform="translate(0,346.63)" d="M80,0h450" style="stroke: rgb(255, 255, 255); stroke-opacity: 1; stroke-width: 1px;"/><path class="ygrid crisp" transform="translate(0,289.26)" d="M80,0h450" style="stroke: rgb(255, 255, 255); stroke-opacity: 1; stroke-width: 1px;"/><path class="ygrid crisp" transform="translate(0,231.89)" d="M80,0h450" style="stroke: rgb(255, 255, 255); stroke-opacity: 1; stroke-width: 1px;"/><path class="ygrid crisp" transform="translate(0,174.51999999999998)" d="M80,0h450" style="stroke: rgb(255, 255, 255); stroke-opacity: 1; stroke-width: 1px;"/><path class="ygrid crisp" transform="translate(0,117.15)" d="M80,0h450" style="stroke: rgb(255, 255, 255); stroke-opacity: 1; stroke-width: 1px;"/></g></g><g class="zerolinelayer"><path class="yzl zl crisp" transform="translate(0,404)" d="M80,0h450" style="stroke: rgb(255, 255, 255); stroke-opacity: 1; stroke-width: 2px;"/></g><path class="xlines-below"/><path class="ylines-below"/><g class="overlines-below"/><g class="xaxislayer-below"/><g class="yaxislayer-below"/><g class="overaxes-below"/><g class="plot" transform="translate(80,100)" clip-path="url(#clip3a899bxyplot)"><g class="scatterlayer mlayer"><g class="trace scatter trace8e7655" style="stroke-miterlimit: 2; opacity: 1;"><g class="fills"/><g class="errorbars"/><g class="lines"><path class="js-line" d="M0,56.16L4.55,279.9L9.09,90.58L13.64,216.8L18.18,282.77L22.73,113.53L27.27,236.88L31.82,102.06L36.36,150.82L40.91,136.48L45.45,211.06L50,262.69L54.55,18.87L59.09,182.37L63.64,24.61L68.18,268.43L72.73,33.21L77.27,202.45L81.82,222.53L86.36,205.32L90.91,300.56L95.45,293.1L100,281.63L104.55,276.46L109.09,293.67L113.64,297.69L118.18,299.41L122.73,285.07L127.27,279.33L131.82,289.66L136.36,154.26L140.91,232.86L145.45,189.26L150,252.94L154.55,281.05L159.09,178.93L163.64,137.63L168.18,141.64L172.73,266.14L177.27,181.23L181.82,162.87L186.36,192.7L190.91,192.13L195.45,210.49L200,191.55L204.55,236.3L209.09,193.27L213.64,122.71L218.18,260.97L222.73,138.77L227.27,164.02L231.82,241.47L236.36,165.74L240.91,163.44L245.45,172.62L250,198.44L254.55,199.01L259.09,229.42L263.64,200.16L268.18,209.34L272.73,237.45L281.82,176.06L286.36,114.1L290.91,227.12L295.45,239.17L300,116.97L304.55,134.76L309.09,114.68L313.64,100.91L318.18,240.89L322.73,131.31L327.27,105.5L331.82,111.24L336.36,197.29L340.91,96.89L345.45,98.04L350,61.32L354.55,111.81L359.09,59.6L363.64,89.43L368.18,17.72L372.73,66.49L377.27,28.05L381.82,95.75L386.36,68.78L390.91,65.91L395.45,21.16L400,71.08L404.55,88.29L409.09,51L413.64,75.09L418.18,51.57L422.73,44.11L427.27,36.65L431.82,38.37L436.36,77.39L440.91,46.41L445.45,37.23L450,83.12" style="vector-effect: non-scaling-stroke; fill: none; stroke: rgb(99, 110, 250); stroke-opacity: 1; stroke-width: 2px; opacity: 1;"/></g><g class="points"/><g class="text"/></g><g class="trace scatter traceb9edd8" style="stroke-miterlimit: 2; opacity: 1;"><g class="fills"/><g class="errorbars"/><g class="lines"><path class="js-line" d="M0,53.29L4.55,277.04L9.09,36.08L13.64,96.32L18.18,274.17L22.73,38.95L27.27,16L31.82,130.74L36.36,159.43L40.91,231.14L45.45,59.03L50,104.92L54.55,162.29L59.09,248.35L63.64,64.76L68.18,245.48L72.73,27.47L77.27,81.98L81.82,265.56L86.36,70.5L90.91,287.36L95.45,290.8L100,296.54L104.55,277.61L109.09,272.45L113.64,155.41L118.18,258.68L122.73,280.48L127.27,274.74L131.82,149.67L136.36,264.41L140.91,145.66L145.45,143.94L150,262.12L154.55,161.72L159.09,283.92L163.64,266.71L168.18,140.49L172.73,209.91L177.27,235.73L181.82,167.46L186.36,178.36L190.91,246.06L195.45,161.15L200,250.07L204.55,166.88L209.09,267.86L213.64,203.03L218.18,207.62L222.73,229.99L227.27,233.43L231.82,220.24L236.36,166.31L240.91,180.08L245.45,184.67L250,115.25L254.55,217.37L259.09,164.59L263.64,218.52L268.18,190.41L272.73,201.31L277.27,132.46L281.82,215.65L286.36,225.98L290.91,182.95L295.45,117.55L300,211.63L304.55,219.09L309.09,189.83L313.64,227.7L318.18,135.9L322.73,26.9L327.27,226.55L331.82,99.76L336.36,129.02L340.91,101.48L345.45,200.73L350,109.51L354.55,106.07L359.09,90.01L363.64,85.42L368.18,67.06L372.73,28.62L377.27,18.29L381.82,69.93L386.36,30.92L390.91,103.2L395.45,19.44L400,32.06L404.55,20.59L409.09,55.59L413.64,72.8L418.18,39.52L422.73,52.72L427.27,86.57L431.82,33.78L436.36,80.83L440.91,48.7L445.45,84.27L450,80.25" style="vector-effect: non-scaling-stroke; fill: none; stroke: rgb(239, 85, 59); stroke-opacity: 1; stroke-width: 2px; opacity: 1;"/></g><g class="points"/><g class="text"/></g><g class="trace scatter trace6929c2" style="stroke-miterlimit: 2; opacity: 1;"><g class="fills"/><g class="errorbars"/><g class="lines"><path class="js-line" d="M0,156.56L4.55,291.38L9.09,288.51L13.64,153.69L18.18,133.61L22.73,234.01L27.27,50.42L31.82,196.72L36.36,285.64L40.91,47.55L45.45,79.11L50,213.93L54.55,41.82L59.09,61.9L63.64,107.79L68.18,228.27L72.73,190.98L77.27,84.84L81.82,225.4L86.36,302.28L90.91,290.23L95.45,286.22L100,291.95L104.55,271.87L109.09,286.79L113.64,287.94L118.18,148.53L122.73,149.1L127.27,275.31L131.82,158.85L136.36,261.55L140.91,150.25L145.45,273.59L150,269L154.55,269.58L159.09,174.34L163.64,126.73L168.18,137.05L172.73,258.1L177.27,206.47L181.82,204.18L186.36,221.39L190.91,247.2L195.45,248.92L200,195.57L204.55,130.17L209.09,123.86L213.64,246.63L218.18,126.15L222.73,169.75L227.27,147.38L231.82,224.83L236.36,143.36L240.91,160.57L245.45,238.6L250,172.05L254.55,221.96L259.09,203.6L263.64,244.91L268.18,185.82L272.73,213.35L277.27,212.21L281.82,103.78L286.36,118.69L290.91,129.59L295.45,234.58L300,247.78L304.55,183.52L309.09,197.86L313.64,223.68L318.18,57.88L322.73,22.31L327.27,115.82L331.82,60.75L336.36,104.35L340.91,92.3L345.45,26.33L350,56.73L354.55,55.01L359.09,108.37L363.64,88.86L368.18,29.77L372.73,31.49L377.27,98.61L381.82,94.02L386.36,35.51L390.91,71.65L395.45,16.57L400,24.03L404.55,94.6L409.09,53.86L413.64,68.21L418.18,72.22L422.73,48.13L427.27,46.98L431.82,45.83L436.36,76.81L440.91,83.7L445.45,82.55L450,302.85" style="vector-effect: non-scaling-stroke; fill: none; stroke: rgb(0, 204, 150); stroke-opacity: 1; stroke-width: 2px; opacity: 1;"/></g><g class="points"/><g class="text"/></g><g class="trace scatter traceb536bb" style="stroke-miterlimit: 2; opacity: 1;"><g class="fills"/><g class="errorbars"/><g class="lines"><path class="js-line" d="M4.55,119.27L9.09,239.75L13.64,259.82L18.18,145.08L22.73,116.4L27.27,199.59L31.82,176.64L36.36,99.19L40.91,193.85L45.45,21.74L50,170.9L54.55,73.37L59.09,87.71L63.64,168.03L68.18,127.87L72.73,165.16L77.27,242.61L81.82,67.63L86.36,301.13L90.91,275.89L95.45,278.76L100,158.28L104.55,282.2L109.09,283.35L113.64,294.82L118.18,153.12L122.73,154.84L127.27,151.39L131.82,278.18L136.36,146.8L140.91,259.25L145.45,264.99L150,157.13L154.55,139.92L159.09,175.49L163.64,295.39L168.18,251.79L172.73,120.99L177.27,146.23L181.82,138.2L186.36,232.29L190.91,250.65L195.45,253.51L200,231.71L204.55,263.27L209.09,119.84L213.64,134.18L218.18,124.43L222.73,184.1L227.27,142.79L231.82,195L236.36,224.25L240.91,220.81L245.45,181.8L250,173.2L254.55,194.42L259.09,135.33L263.64,240.32L268.18,174.92L272.73,171.47L277.27,215.08L281.82,212.78L286.36,230.57L290.91,169.18L295.45,243.19L300,216.22L304.55,235.16L309.09,25.75L313.64,120.41L318.18,107.22L322.73,180.65L327.27,112.38L331.82,100.33L336.36,95.17L340.91,60.18L345.45,29.2L350,131.89L354.55,217.94L359.09,112.96L363.64,62.47L368.18,25.18L372.73,37.8L377.27,65.34L381.82,69.35L386.36,40.67L390.91,75.67L395.45,57.31L400,34.93L404.55,34.36L413.64,85.99L418.18,73.94L422.73,42.96L427.27,74.52L431.82,91.73L436.36,81.4L440.91,49.85L445.45,79.68L450,303.43" style="vector-effect: non-scaling-stroke; fill: none; stroke: rgb(171, 99, 250); stroke-opacity: 1; stroke-width: 2px; opacity: 1;"/></g><g class="points"/><g class="text"/></g><g class="trace scatter tracef780fc" style="stroke-miterlimit: 2; opacity: 1;"><g class="fills"/><g class="errorbars"/><g class="lines"><path class="js-line" d="M0,179.51L4.55,256.96L9.09,93.45L13.64,142.22L18.18,254.09L22.73,251.22L27.27,139.35L31.82,219.67L36.36,271.3L40.91,110.66L45.45,147.95L50,208.19L54.55,76.24L59.09,122.14L63.64,125L68.18,30.34L72.73,185.24L77.27,44.69L81.82,188.11L86.36,298.84L90.91,295.97L100,273.02L104.55,289.08L109.09,301.71L113.64,152.54L118.18,292.53L122.73,151.97L127.27,155.98L131.82,270.15L136.36,255.81L140.91,254.66L150,260.4L154.55,144.51L159.09,141.07L163.64,270.73L168.18,256.38L172.73,255.24L177.27,263.84L181.82,177.78L186.36,157.71L190.91,196.14L195.45,205.9L200,125.58L204.55,188.69L209.09,127.3L213.64,249.5L218.18,267.28L222.73,123.28L227.27,228.84L231.82,252.37L236.36,170.33L240.91,207.04L245.45,177.21L250,160L254.55,168.61L263.64,244.33L268.18,242.04L272.73,118.12L277.27,243.76L281.82,186.96L286.36,106.65L290.91,187.54L295.45,121.56L300,298.26L304.55,214.5L309.09,238.02L313.64,223.11L318.18,102.63L322.73,186.39L327.27,110.09L331.82,201.88L336.36,23.46L340.91,108.94L345.45,133.04L350,128.45L354.55,64.19L359.09,22.88L363.64,63.62L368.18,63.04L372.73,32.64L377.27,97.47L381.82,91.16L386.36,20.02L390.91,52.14L395.45,77.96L400,17.15L404.55,92.88L409.09,43.54L413.64,49.27L418.18,78.53L422.73,41.24L427.27,42.39L431.82,54.44L436.36,40.1L440.91,45.26L445.45,87.14L450,304" style="vector-effect: non-scaling-stroke; fill: none; stroke: rgb(255, 161, 90); stroke-opacity: 1; stroke-width: 2px; opacity: 1;"/></g><g class="points"/><g class="text"/></g></g></g><g class="overplot"/><path class="xlines-above crisp" d="M0,0" style="fill: none;"/><path class="ylines-above crisp" d="M0,0" style="fill: none;"/><g class="overlines-above"/><g class="xaxislayer-above"><g class="xtick"><text text-anchor="middle" x="0" y="433" transform="translate(80,0)" style="font-family: 'Open Sans', verdana, arial, sans-serif; font-size: 12px; fill: rgb(42, 63, 95); fill-opacity: 1; white-space: pre; opacity: 1;">0</text></g><g class="xtick"><text text-anchor="middle" x="0" y="433" transform="translate(98.18,0)" style="font-family: 'Open Sans', verdana, arial, sans-serif; font-size: 12px; fill: rgb(42, 63, 95); fill-opacity: 1; white-space: pre; opacity: 1;">4</text></g><g class="xtick"><text text-anchor="middle" x="0" y="433" transform="translate(116.36,0)" style="font-family: 'Open Sans', verdana, arial, sans-serif; font-size: 12px; fill: rgb(42, 63, 95); fill-opacity: 1; white-space: pre; opacity: 1;">8</text></g><g class="xtick"><text text-anchor="middle" x="0" y="433" transform="translate(134.55,0)" style="font-family: 'Open Sans', verdana, arial, sans-serif; font-size: 12px; fill: rgb(42, 63, 95); fill-opacity: 1; white-space: pre; opacity: 1;">12</text></g><g class="xtick"><text text-anchor="middle" x="0" y="433" transform="translate(152.73000000000002,0)" style="font-family: 'Open Sans', verdana, arial, sans-serif; font-size: 12px; fill: rgb(42, 63, 95); fill-opacity: 1; white-space: pre; opacity: 1;">16</text></g><g class="xtick"><text text-anchor="middle" x="0" y="433" transform="translate(170.91,0)" style="font-family: 'Open Sans', verdana, arial, sans-serif; font-size: 12px; fill: rgb(42, 63, 95); fill-opacity: 1; white-space: pre; opacity: 1;">20</text></g><g class="xtick"><text text-anchor="middle" x="0" y="433" transform="translate(189.09,0)" style="font-family: 'Open Sans', verdana, arial, sans-serif; font-size: 12px; fill: rgb(42, 63, 95); fill-opacity: 1; white-space: pre; opacity: 1;">24</text></g><g class="xtick"><text text-anchor="middle" x="0" y="433" transform="translate(207.26999999999998,0)" style="font-family: 'Open Sans', verdana, arial, sans-serif; font-size: 12px; fill: rgb(42, 63, 95); fill-opacity: 1; white-space: pre; opacity: 1;">28</text></g><g class="xtick"><text text-anchor="middle" x="0" y="433" transform="translate(225.45,0)" style="font-family: 'Open Sans', verdana, arial, sans-serif; font-size: 12px; fill: rgb(42, 63, 95); fill-opacity: 1; white-space: pre; opacity: 1;">32</text></g><g class="xtick"><text text-anchor="middle" x="0" y="433" transform="translate(243.64,0)" style="font-family: 'Open Sans', verdana, arial, sans-serif; font-size: 12px; fill: rgb(42, 63, 95); fill-opacity: 1; white-space: pre; opacity: 1;">36</text></g><g class="xtick"><text text-anchor="middle" x="0" y="433" transform="translate(261.82,0)" style="font-family: 'Open Sans', verdana, arial, sans-serif; font-size: 12px; fill: rgb(42, 63, 95); fill-opacity: 1; white-space: pre; opacity: 1;">40</text></g><g class="xtick"><text text-anchor="middle" x="0" y="433" transform="translate(280,0)" style="font-family: 'Open Sans', verdana, arial, sans-serif; font-size: 12px; fill: rgb(42, 63, 95); fill-opacity: 1; white-space: pre; opacity: 1;">44</text></g><g class="xtick"><text text-anchor="middle" x="0" y="433" transform="translate(298.18,0)" style="font-family: 'Open Sans', verdana, arial, sans-serif; font-size: 12px; fill: rgb(42, 63, 95); fill-opacity: 1; white-space: pre; opacity: 1;">48</text></g><g class="xtick"><text text-anchor="middle" x="0" y="433" transform="translate(316.36,0)" style="font-family: 'Open Sans', verdana, arial, sans-serif; font-size: 12px; fill: rgb(42, 63, 95); fill-opacity: 1; white-space: pre; opacity: 1;">52</text></g><g class="xtick"><text text-anchor="middle" x="0" y="433" transform="translate(334.55,0)" style="font-family: 'Open Sans', verdana, arial, sans-serif; font-size: 12px; fill: rgb(42, 63, 95); fill-opacity: 1; white-space: pre; opacity: 1;">56</text></g><g class="xtick"><text text-anchor="middle" x="0" y="433" transform="translate(352.73,0)" style="font-family: 'Open Sans', verdana, arial, sans-serif; font-size: 12px; fill: rgb(42, 63, 95); fill-opacity: 1; white-space: pre; opacity: 1;">60</text></g><g class="xtick"><text text-anchor="middle" x="0" y="433" transform="translate(370.91,0)" style="font-family: 'Open Sans', verdana, arial, sans-serif; font-size: 12px; fill: rgb(42, 63, 95); fill-opacity: 1; white-space: pre; opacity: 1;">64</text></g><g class="xtick"><text text-anchor="middle" x="0" y="433" transform="translate(389.09,0)" style="font-family: 'Open Sans', verdana, arial, sans-serif; font-size: 12px; fill: rgb(42, 63, 95); fill-opacity: 1; white-space: pre; opacity: 1;">68</text></g><g class="xtick"><text text-anchor="middle" x="0" y="433" transform="translate(407.27,0)" style="font-family: 'Open Sans', verdana, arial, sans-serif; font-size: 12px; fill: rgb(42, 63, 95); fill-opacity: 1; white-space: pre; opacity: 1;">72</text></g><g class="xtick"><text text-anchor="middle" x="0" y="433" transform="translate(425.45,0)" style="font-family: 'Open Sans', verdana, arial, sans-serif; font-size: 12px; fill: rgb(42, 63, 95); fill-opacity: 1; white-space: pre; opacity: 1;">76</text></g><g class="xtick"><text text-anchor="middle" x="0" y="433" transform="translate(443.64,0)" style="font-family: 'Open Sans', verdana, arial, sans-serif; font-size: 12px; fill: rgb(42, 63, 95); fill-opacity: 1; white-space: pre; opacity: 1;">80</text></g><g class="xtick"><text text-anchor="middle" x="0" y="433" transform="translate(461.82,0)" style="font-family: 'Open Sans', verdana, arial, sans-serif; font-size: 12px; fill: rgb(42, 63, 95); fill-opacity: 1; white-space: pre; opacity: 1;">84</text></g><g class="xtick"><text text-anchor="middle" x="0" y="433" transform="translate(480,0)" style="font-family: 'Open Sans', verdana, arial, sans-serif; font-size: 12px; fill: rgb(42, 63, 95); fill-opacity: 1; white-space: pre; opacity: 1;">88</text></g><g class="xtick"><text text-anchor="middle" x="0" y="433" transform="translate(498.18,0)" style="font-family: 'Open Sans', verdana, arial, sans-serif; font-size: 12px; fill: rgb(42, 63, 95); fill-opacity: 1; white-space: pre; opacity: 1;">92</text></g><g class="xtick"><text text-anchor="middle" x="0" y="433" transform="translate(516.36,0)" style="font-family: 'Open Sans', verdana, arial, sans-serif; font-size: 12px; fill: rgb(42, 63, 95); fill-opacity: 1; white-space: pre; opacity: 1;">96</text></g></g><g class="yaxislayer-above"><g class="ytick"><text text-anchor="end" x="79" y="4.199999999999999" transform="translate(0,404)" style="font-family: 'Open Sans', verdana, arial, sans-serif; font-size: 12px; fill: rgb(42, 63, 95); fill-opacity: 1; white-space: pre; opacity: 1;">0</text></g><g class="ytick"><text text-anchor="end" x="79" y="4.199999999999999" style="font-family: 'Open Sans', verdana, arial, sans-serif; font-size: 12px; fill: rgb(42, 63, 95); fill-opacity: 1; white-space: pre; opacity: 1;" transform="translate(0,346.63)">100</text></g><g class="ytick"><text text-anchor="end" x="79" y="4.199999999999999" style="font-family: 'Open Sans', verdana, arial, sans-serif; font-size: 12px; fill: rgb(42, 63, 95); fill-opacity: 1; white-space: pre; opacity: 1;" transform="translate(0,289.26)">200</text></g><g class="ytick"><text text-anchor="end" x="79" y="4.199999999999999" style="font-family: 'Open Sans', verdana, arial, sans-serif; font-size: 12px; fill: rgb(42, 63, 95); fill-opacity: 1; white-space: pre; opacity: 1;" transform="translate(0,231.89)">300</text></g><g class="ytick"><text text-anchor="end" x="79" y="4.199999999999999" style="font-family: 'Open Sans', verdana, arial, sans-serif; font-size: 12px; fill: rgb(42, 63, 95); fill-opacity: 1; white-space: pre; opacity: 1;" transform="translate(0,174.51999999999998)">400</text></g><g class="ytick"><text text-anchor="end" x="79" y="4.199999999999999" style="font-family: 'Open Sans', verdana, arial, sans-serif; font-size: 12px; fill: rgb(42, 63, 95); fill-opacity: 1; white-space: pre; opacity: 1;" transform="translate(0,117.15)">500</text></g></g><g class="overaxes-above"/></g></g><g class="polarlayer"/><g class="smithlayer"/><g class="ternarylayer"/><g class="geolayer"/><g class="funnelarealayer"/><g class="pielayer"/><g class="iciclelayer"/><g class="treemaplayer"/><g class="sunburstlayer"/><g class="glimages"/><defs id="topdefs-3a899b"><g class="clips"/><clipPath id="legend3a899b"><rect width="149" height="105" x="0" y="0"/></clipPath></defs><g class="layer-above"><g class="imagelayer"/><g class="shapelayer"/></g><g class="infolayer"><g class="legend" pointer-events="all" transform="translate(539,100)"><rect class="bg" shape-rendering="crispEdges" width="149" height="105" x="0" y="0" style="stroke: rgb(68, 68, 68); stroke-opacity: 1; fill: rgb(255, 255, 255); fill-opacity: 1; stroke-width: 0px;"/><g class="scrollbox" transform="" clip-path="url(#legend3a899b)"><g class="groups"><g class="traces" transform="translate(0,14.5)" style="opacity: 1;"><text class="legendtext" text-anchor="start" x="40" y="4.680000000000001" style="font-family: 'Open Sans', verdana, arial, sans-serif; font-size: 12px; fill: rgb(42, 63, 95); fill-opacity: 1; white-space: pre;">Open importance</text><g class="layers" style="opacity: 1;"><g class="legendfill"/><g class="legendlines"><path class="js-line" d="M5,0h30" style="fill: none; stroke: rgb(99, 110, 250); stroke-opacity: 1; stroke-width: 2px;"/></g><g class="legendsymbols"><g class="legendpoints"/></g></g><rect class="legendtoggle" x="0" y="-9.5" width="143.046875" height="19" style="fill: rgb(0, 0, 0); fill-opacity: 0;"/></g><g class="traces" transform="translate(0,33.5)" style="opacity: 1;"><text class="legendtext" text-anchor="start" x="40" y="4.680000000000001" style="font-family: 'Open Sans', verdana, arial, sans-serif; font-size: 12px; fill: rgb(42, 63, 95); fill-opacity: 1; white-space: pre;">High importance</text><g class="layers" style="opacity: 1;"><g class="legendfill"/><g class="legendlines"><path class="js-line" d="M5,0h30" style="fill: none; stroke: rgb(239, 85, 59); stroke-opacity: 1; stroke-width: 2px;"/></g><g class="legendsymbols"><g class="legendpoints"/></g></g><rect class="legendtoggle" x="0" y="-9.5" width="143.046875" height="19" style="fill: rgb(0, 0, 0); fill-opacity: 0;"/></g><g class="traces" transform="translate(0,52.5)" style="opacity: 1;"><text class="legendtext" text-anchor="start" x="40" y="4.680000000000001" style="font-family: 'Open Sans', verdana, arial, sans-serif; font-size: 12px; fill: rgb(42, 63, 95); fill-opacity: 1; white-space: pre;">Low importance</text><g class="layers" style="opacity: 1;"><g class="legendfill"/><g class="legendlines"><path class="js-line" d="M5,0h30" style="fill: none; stroke: rgb(0, 204, 150); stroke-opacity: 1; stroke-width: 2px;"/></g><g class="legendsymbols"><g class="legendpoints"/></g></g><rect class="legendtoggle" x="0" y="-9.5" width="143.046875" height="19" style="fill: rgb(0, 0, 0); fill-opacity: 0;"/></g><g class="traces" transform="translate(0,71.5)" style="opacity: 1;"><text class="legendtext" text-anchor="start" x="40" y="4.680000000000001" style="font-family: 'Open Sans', verdana, arial, sans-serif; font-size: 12px; fill: rgb(42, 63, 95); fill-opacity: 1; white-space: pre;">Close importance</text><g class="layers" style="opacity: 1;"><g class="legendfill"/><g class="legendlines"><path class="js-line" d="M5,0h30" style="fill: none; stroke: rgb(171, 99, 250); stroke-opacity: 1; stroke-width: 2px;"/></g><g class="legendsymbols"><g class="legendpoints"/></g></g><rect class="legendtoggle" x="0" y="-9.5" width="143.046875" height="19" style="fill: rgb(0, 0, 0); fill-opacity: 0;"/></g><g class="traces" transform="translate(0,90.5)" style="opacity: 1;"><text class="legendtext" text-anchor="start" x="40" y="4.680000000000001" style="font-family: 'Open Sans', verdana, arial, sans-serif; font-size: 12px; fill: rgb(42, 63, 95); fill-opacity: 1; white-space: pre;">Volume importance</text><g class="layers" style="opacity: 1;"><g class="legendfill"/><g class="legendlines"><path class="js-line" d="M5,0h30" style="fill: none; stroke: rgb(255, 161, 90); stroke-opacity: 1; stroke-width: 2px;"/></g><g class="legendsymbols"><g class="legendpoints"/></g></g><rect class="legendtoggle" x="0" y="-9.5" width="143.046875" height="19" style="fill: rgb(0, 0, 0); fill-opacity: 0;"/></g></g></g><rect class="scrollbar" rx="20" ry="3" width="0" height="0" x="0" y="0" style="fill: rgb(128, 139, 164); fill-opacity: 1;"/></g><g class="g-gtitle"/><g class="g-xtitle"/><g class="g-ytitle"/><g class="annotation" data-index="0" style="opacity: 1;"><g class="annotation-text-g" transform="rotate(0,305,89.49999999999999)"><g class="cursor-pointer" transform="translate(76,79)"><rect class="bg" x="0.5" y="0.5" width="457" height="20" style="stroke-width: 1px; stroke: rgb(0, 0, 0); stroke-opacity: 0; fill: rgb(0, 0, 0); fill-opacity: 0;"/><text class="annotation-text" text-anchor="middle" x="229.03125" y="16" style="font-family: 'Open Sans', verdana, arial, sans-serif; font-size: 16px; fill: rgb(42, 63, 95); fill-opacity: 1; white-space: pre;">Rank of importance of the daily lagged features (higher = better)</text></g></g></g></g></svg>